<svg enable-background="new 2.7 326.5 506.7 181" height="86" width="86" xmlns="http://www.w3.org/2000/svg">
  <path d="m42.999884 0c-23.747155 0-42.99890906 19.251082-42.99890906 42.99891 0 .183209-.00219362.365793 0 .548437-.00219362.02254 0 .04531 0 .06856v41.76605c0 .338885.23821732.617001.53473175.617001h41.92729531c.01824.000222.03655-.000202.05484 0 .159892.0017.319586 0 .479875 0 .160308 0 .319995.0017.479874 0 .01777.0024.03659 0 .05484 0h41.927296c.296515 0 .534732-.278129.534732-.617001v-41.76605c0-.02325.0024-.046 0-.06856.0024-.182664 0-.365255 0-.548437.000008-23.747492-19.250738-42.99891-42.998902-42.99891z" fill="#426e8d" stroke-width=".335929"/>
  <text style="font-family:sans-serif;font-size:14.4;letter-spacing:0;word-spacing:0;fill:#fdffff;stroke-width:.36" x="3.657756" y="59.71294"><tspan fill="#fdffff" font-family="Ubuntu" font-size="24.0001" font-weight="bold" stroke-width=".072" x="3.657756" y="59.71294">CHUM</tspan></text>
</svg>
