<?xml version="1.0" encoding="UTF-8" standalone="no"?>
<!-- Created with Inkscape (http://www.inkscape.org/) -->

<svg
   width="240"
   height="130"
   viewBox="0 0 744.09449 1052.3622"
   id="svg4443"
   version="1.1"
   inkscape:version="1.4.4 (dcaf3e7, 2026-05-05)"
   sodipodi:docname="AI-score-A.svg"
   xmlns:inkscape="http://www.inkscape.org/namespaces/inkscape"
   xmlns:sodipodi="http://sodipodi.sourceforge.net/DTD/sodipodi-0.dtd"
   xmlns="http://www.w3.org/2000/svg"
   xmlns:svg="http://www.w3.org/2000/svg"
   xmlns:rdf="http://www.w3.org/1999/02/22-rdf-syntax-ns#"
   xmlns:cc="http://creativecommons.org/ns#"
   xmlns:dc="http://purl.org/dc/elements/1.1/">
  <defs
     id="defs4445" />
  <sodipodi:namedview
     id="base"
     pagecolor="#ffffff"
     bordercolor="#666666"
     borderopacity="1.0"
     inkscape:pageopacity="0.0"
     inkscape:pageshadow="2"
     inkscape:zoom="1.4"
     inkscape:cx="103.92857"
     inkscape:cy="55"
     inkscape:document-units="px"
     inkscape:current-layer="layer1"
     showgrid="false"
     inkscape:window-width="1278"
     inkscape:window-height="1120"
     inkscape:window-x="1273"
     inkscape:window-y="0"
     inkscape:window-maximized="0"
     inkscape:showpageshadow="0"
     inkscape:pagecheckerboard="1"
     inkscape:deskcolor="#505050" />
  <metadata
     id="metadata4448">
    <rdf:RDF>
      <cc:Work
         rdf:about="">
        <dc:format>image/svg+xml</dc:format>
        <dc:type
           rdf:resource="http://purl.org/dc/dcmitype/StillImage" />
      </cc:Work>
    </rdf:RDF>
  </metadata>
  <g
     inkscape:label="Calque 1"
     inkscape:groupmode="layer"
     id="layer1">
    <path
       style="opacity:0.6;fill:#ffffff;fill-opacity:1;fill-rule:evenodd;stroke:none;stroke-width:1;stroke-linecap:round;stroke-linejoin:round;stroke-miterlimit:4;stroke-dasharray:none;stroke-dashoffset:0;stroke-opacity:1"
       d="m -419.31459,-3.9161214e-5 1582.72369,0 c 99.7478,0 180.0493,80.302031161214 180.0493,180.049429161214 l 0,632.48116 c 0,99.7473 -80.3015,180.04933 -180.0493,180.04933 l -1582.72369,0 c -99.7474,0 -180.04943,-80.30203 -180.04943,-180.04933 l 0,-632.48116 c 0,-99.747398 80.30203,-180.049429161214 180.04943,-180.049429161214 z"
       id="rect5161"
       inkscape:connector-curvature="0" />
    <path
       style="opacity:1;fill:#038141;fill-opacity:1;fill-rule:evenodd;stroke:none;stroke-width:1;stroke-linecap:round;stroke-linejoin:round;stroke-miterlimit:4;stroke-dasharray:none;stroke-dashoffset:0;stroke-opacity:1"
       d="m -308.51495,357.79046 363.029984,0 0,586.31476 -363.029984,0 z"
       id="rect5163"
       inkscape:connector-curvature="0" />
    <path
       style="opacity:1;fill:#800080;fill-opacity:1;fill-rule:evenodd;stroke:none;stroke-width:1;stroke-linecap:round;stroke-linejoin:round;stroke-miterlimit:4;stroke-dasharray:none;stroke-dashoffset:0;stroke-opacity:1"
       d="m 748.69823,357.79046 363.02977,0 0,586.31476 -363.02977,0 z"
       id="rect5165"
       inkscape:connector-curvature="0" />
    <path
       style="opacity:1;fill:#038141;fill-opacity:1;fill-rule:evenodd;stroke:none;stroke-width:1;stroke-linecap:round;stroke-linejoin:round;stroke-miterlimit:4;stroke-dasharray:none;stroke-dashoffset:0;stroke-opacity:1"
       d="m -382.38116,357.79046 90.64758,0 c 75.44988,0 136.1912,60.74132 136.1912,136.1912 l 0,313.93236 c 0,75.44988 -60.74132,136.1912 -136.1912,136.1912 l -90.64758,0 c -75.44996,0 -136.1912,-60.74132 -136.1912,-136.1912 l 0,-313.93236 c 0,-75.44988 60.74124,-136.1912 136.1912,-136.1912 z"
       id="rect5167"
       inkscape:connector-curvature="0" />
    <path
       style="opacity:1;fill:#ff01ff;fill-opacity:1;fill-rule:evenodd;stroke:none;stroke-width:1;stroke-linecap:round;stroke-linejoin:round;stroke-miterlimit:4;stroke-dasharray:none;stroke-dashoffset:0;stroke-opacity:1"
       d="m 570.95697,357.79046 363.0296,0 0,586.31476 -363.0296,0 z"
       id="rect5169"
       inkscape:connector-curvature="0" />
    <path
       style="opacity:1;fill:#fecb02;fill-opacity:1;fill-rule:evenodd;stroke:none;stroke-width:1;stroke-linecap:round;stroke-linejoin:round;stroke-miterlimit:4;stroke-dasharray:none;stroke-dashoffset:0;stroke-opacity:1"
       d="m 188.25931,357.79046 383.3209,0 0,586.31476 -383.3209,0 z"
       id="rect5175"
       inkscape:connector-curvature="0" />
    <path
       style="opacity:1;fill:#85bb2f;fill-opacity:1;fill-rule:evenodd;stroke:none;stroke-width:1;stroke-linecap:round;stroke-linejoin:round;stroke-miterlimit:4;stroke-dasharray:none;stroke-dashoffset:0;stroke-opacity:1"
       d="m 206.86512,357.79046 -363.03008,0 0,586.31476 363.03008,0 z"
       id="rect5177"
       inkscape:connector-curvature="0" />
    <path
       inkscape:connector-curvature="0"
       id="path5595"
       style="font-style:normal;font-variant:normal;font-weight:800;font-stretch:normal;font-size:medium;line-height:90%;font-family:Raleway;-inkscape-font-specification:'Raleway Ultra-Bold';letter-spacing:0px;word-spacing:0px;fill:#ffffff;fill-opacity:0.446064;stroke:none;stroke-width:1px;stroke-linecap:butt;stroke-linejoin:miter;stroke-opacity:1"
       d="m 631.36331,648.32725 q 0,-23.95968 8.98486,-47.54488 8.98486,-23.95968 26.20589,-42.67816 17.22095,-18.71848 41.9293,-30.32394 24.70845,-11.60536 56.15544,-11.60536 37.43697,0 64.76592,16.09789 27.70334,16.09788 41.18062,41.92929 l -47.17059,32.94454 q -4.49242,-10.4824 -11.60545,-17.22104 -6.73864,-7.11303 -14.97473,-11.23107 -8.23609,-4.49244 -16.84665,-5.98987 -8.61047,-1.87184 -16.84656,-1.87184 -17.59542,0 -30.69832,7.11303 -13.1029,7.11302 -21.71347,18.3441 -8.61047,11.23107 -12.72851,25.45713 -4.11804,14.22595 -4.11804,28.82638 0,15.7235 4.86681,30.32394 4.86681,14.60034 13.85167,25.83141 9.35924,11.23117 22.08775,17.96982 13.1029,6.36425 29.20078,6.36425 8.23619,0 16.84666,-1.87183 8.98485,-2.24622 16.84665,-6.36435 8.23609,-4.49243 14.97473,-11.23107 6.73864,-7.11303 10.85668,-17.22095 l 50.16548,29.57517 q -5.98987,14.60044 -17.96971,26.20589 -11.60546,11.60536 -26.95457,19.46716 -15.34911,7.8618 -32.57015,11.97984 -17.22094,4.11804 -33.69321,4.11804 -28.8264,0 -53.16046,-11.60545 -23.95959,-11.97984 -41.55501,-31.447 -17.22094,-19.46725 -26.95457,-44.1756 -9.35924,-24.70836 -9.35924,-50.16547 z" />
    <path
       inkscape:connector-curvature="0"
       id="path5592"
       style="font-style:normal;font-variant:normal;font-weight:800;font-stretch:normal;font-size:medium;line-height:89.99999762%;font-family:Raleway;-inkscape-font-specification:'Raleway Ultra-Bold';letter-spacing:0px;word-spacing:0px;fill:#ffffff;fill-opacity:0.44606413;stroke:none;stroke-width:1px;stroke-linecap:butt;stroke-linejoin:miter;stroke-opacity:1"
       d="m 154.55231,720.90218 q 0,17.22104 -7.11303,29.94956 -7.11303,12.72861 -19.46725,21.33908 -12.35413,8.23618 -28.8264,12.72861 -16.472267,4.11804 -34.816364,4.11804 l -129.531833,0 0,-265.80221 147.87593,0 q 13.851668,0 25.082737,5.98987 11.23107,5.98987 19.09287,15.7235 7.8617,9.35924 11.97984,21.71346 4.49243,11.97984 4.49243,24.70836 0,19.09286 -9.73363,35.93942 -9.35924,16.84665 -28.45211,25.45712 22.83653,6.73865 35.93952,23.95968 13.47729,17.22095 13.47729,44.17551 z M 92.032603,708.54805 q 0,-12.35422 -7.113026,-20.96469 -7.113027,-8.61047 -17.969713,-8.61047 l -70.7557882,0 0,58.02718 68.1351902,0 q 11.979839,0 19.841541,-7.8617 7.861796,-7.8618 7.861796,-20.59032 z m -95.8385272,-132.9011 0,55.03229 60.2733932,0 q 10.108011,0 17.969807,-6.73864 7.861702,-6.73865 7.861702,-20.9647 0,-13.1029 -7.113027,-20.21592 -6.738642,-7.11303 -16.472268,-7.11303 l -62.5196072,0 z" />
    <path
       style="opacity:1;fill:#0039ff;fill-opacity:0.62973764;fill-rule:evenodd;stroke:#ffffff;stroke-width:61.03178787;stroke-linecap:round;stroke-linejoin:round;stroke-miterlimit:4;stroke-dasharray:none;stroke-dashoffset:0;stroke-opacity:1"
       d="m 7.725967,281.61579 39.326398,0 c 108.699035,0 196.207645,87.50861 196.207645,196.20765 l 0,343.94054 c 0,108.69904 -87.50861,196.20762 -196.207645,196.20762 l -39.326398,0 c -108.699137,0 -196.207737,-87.50858 -196.207737,-196.20762 l 0,-343.94054 c 0,-108.69904 87.5086,-196.20765 196.207737,-196.20765 z"
       id="rect5187"
       inkscape:connector-curvature="0" />
    <path
       style="opacity:1;fill:#800080;fill-opacity:1;fill-rule:evenodd;stroke:none;stroke-width:1;stroke-linecap:round;stroke-linejoin:round;stroke-miterlimit:4;stroke-dasharray:none;stroke-dashoffset:0;stroke-opacity:1"
       d="m 1069.5559,357.79046 90.6471,0 c 75.4498,0 136.1917,60.74132 136.1917,136.1912 l 0,313.93236 c 0,75.44988 -60.7419,136.1912 -136.1917,136.1912 l -90.6471,0 c -75.44982,0 -136.19172,-60.74132 -136.19172,-136.1912 l 0,-313.93236 c 0,-75.44988 60.7419,-136.1912 136.19172,-136.1912 z"
       id="rect5193"
       inkscape:connector-curvature="0" />
    <path
       style="opacity:1;fill:#85bb2f;fill-opacity:1;fill-rule:evenodd;stroke:none;stroke-width:15.94488144;stroke-linecap:round;stroke-linejoin:round;stroke-miterlimit:4;stroke-dasharray:none;stroke-dashoffset:0;stroke-opacity:1"
       d="m 7.725967,281.61579 39.326398,0 c 108.699035,0 196.207645,87.50861 196.207645,196.20765 l 0,343.94054 c 0,108.69904 -87.50861,196.20762 -196.207645,196.20762 l -39.326398,0 c -108.699137,0 -196.207737,-87.50858 -196.207737,-196.20762 l 0,-343.94054 c 0,-108.69904 87.5086,-196.20765 196.207737,-196.20765 z"
       id="rect5199"
       inkscape:connector-curvature="0" />
    <path
       style="font-weight:bold;font-size:197.871px;line-height:0.2;font-family:'Source Sans 3';-inkscape-font-specification:'Source Sans 3 Bold';fill:#969696;stroke-width:9.34618;stroke-linecap:round;stroke-linejoin:round"
       d="m -474.42206,237.49316 40.36569,-129.01189 h 34.82529 l 40.56356,129.01189 h -30.86788 l -16.81903,-65.29743 q -2.7702,-9.69568 -5.34252,-20.57858 -2.57232,-10.88291 -5.14465,-20.97433 h -0.79148 q -2.17658,10.09142 -4.74891,20.97433 -2.57232,10.8829 -5.34251,20.57858 l -17.01691,65.29743 z m 26.51472,-30.67 v -22.75517 h 62.13149 v 22.75517 z m 103.28865,30.67 V 108.48127 h 29.08704 v 129.01189 z m 52.83167,-39.77207 v -20.57858 h 48.67627 v 20.57858 z m 106.6528,42.14653 q -12.86161,0 -25.32748,-4.55104 -12.46588,-4.7489 -22.35943,-14.24671 l 15.43394,-18.99562 q 6.92549,5.93613 15.63181,9.29994 8.90419,3.36381 17.41265,3.36381 9.10206,0 13.45523,-3.36381 4.55103,-3.36381 4.55103,-9.10206 0,-4.1553 -2.37445,-6.52975 -2.17658,-2.57232 -6.33187,-4.55103 -4.1553,-1.97871 -9.89355,-4.35316 l -16.81904,-6.92549 q -6.52974,-2.96806 -12.66374,-7.5191 -5.93613,-4.7489 -9.69568,-11.47651 -3.56168,-6.92549 -3.56168,-16.4233 0,-10.68503 5.73826,-19.19348 5.93613,-8.70633 16.22542,-13.85097 10.48716,-5.34252 23.94239,-5.34252 11.67439,0 22.5573,4.15529 10.8829,4.15529 18.99561,12.07013 l -15.43394,18.79775 q -6.33187,-4.74891 -13.05948,-7.32123 -6.52975,-2.57232 -13.05949,-2.57232 -7.5191,0 -12.07013,3.16593 -4.35316,2.96807 -4.35316,8.50846 0,3.75954 2.57232,6.52974 2.57232,2.57232 7.12336,4.55103 4.55103,1.78084 9.89355,4.15529 l 16.62116,6.72762 q 7.91484,3.16593 13.45523,7.91484 5.73826,4.7489 8.90419,11.47651 3.16594,6.52975 3.16594,15.63181 0,10.68504 -5.73826,19.7871 -5.73826,9.10207 -16.62116,14.64246 -10.88291,5.54039 -26.31685,5.54039 z m 125.252307,0 q -16.621165,0 -30.472135,-7.32123 -13.653102,-7.5191 -21.963682,-22.35942 -8.31058,-14.84033 -8.31058,-36.40827 0,-16.02755 4.7489,-28.49342 4.94678,-12.66375 13.45523,-21.37007 8.508454,-8.70633 19.391359,-13.25736 11.080776,-4.55103 23.348779,-4.55103 12.465873,0 22.359423,4.94677 9.89355,4.94678 16.423293,11.87226 l -15.433938,17.61052 q -4.748904,-4.55103 -10.289292,-6.72761 -5.540388,-2.37445 -12.465873,-2.37445 -8.508454,0 -15.829681,5.14464 -7.123356,4.94678 -11.476518,14.24672 -4.353162,9.29993 -4.353162,21.96368 0,13.25735 4.155291,22.75516 4.155291,9.29994 11.476518,14.24671 7.519098,4.94678 17.214778,4.94678 7.519098,0 13.455228,-3.16594 5.93613,-3.16593 10.487163,-7.5191 l 14.642454,17.21478 q -8.310582,9.29994 -18.402003,14.04884 -10.091421,4.55104 -22.161552,4.55104 z m 105.66311,0 q -17.412648,0 -30.670006,-8.11272 Q 2.0517052,223.64219 -5.4673929,208.604 -12.78862,193.5658 -12.78862,172.3936 q 0,-20.97432 7.3212271,-35.81465 7.5190981,-14.84032 20.5785839,-22.55729 13.257358,-7.91484 30.670006,-7.91484 17.412648,0 30.670005,7.91484 13.257357,7.71697 20.578584,22.55729 7.321224,14.84033 7.321224,35.81465 0,21.1722 -7.321224,36.2104 -7.321227,15.03819 -20.578584,23.1509 -13.257357,8.11272 -30.670005,8.11272 z m 0,-25.12962 q 8.904195,0 15.236067,-5.14465 6.529743,-5.34251 9.89355,-14.84032 3.561678,-9.49781 3.561678,-22.35943 0,-12.86161 -3.561678,-21.96368 -3.363807,-9.29993 -9.89355,-14.04884 -6.331872,-4.94677 -15.236067,-4.94677 -8.706324,0 -15.236067,4.94677 -6.529744,4.74891 -10.091422,14.04884 -3.363807,9.10207 -3.363807,21.96368 0,12.86162 3.363807,22.35943 3.561678,9.49781 10.091422,14.84032 6.529743,5.14465 15.236067,5.14465 z m 82.907963,22.75516 V 108.48127 h 46.49969 q 13.6531,0 24.93174,3.75955 11.27865,3.56168 18.00626,12.46587 6.72762,8.70633 6.72762,23.94239 0,14.84033 -6.72762,24.14027 -6.72761,9.29993 -18.00626,13.85097 -11.27864,4.35316 -24.93174,4.35316 H 157.7762 v 46.49968 z m 29.08704,-69.65059 h 15.0382 q 11.47651,0 17.41264,-4.7489 6.134,-4.94678 6.134,-14.44459 0,-9.4978 -6.134,-13.25735 -5.93613,-3.75955 -17.41264,-3.75955 h -15.0382 z m 40.76143,69.65059 -28.6913,-54.01878 20.18284,-18.79774 41.15717,72.81652 z m 51.44664,0 V 108.48127 h 80.73137 v 24.536 H 279.0713 v 25.92111 h 43.92737 v 24.33813 H 279.0713 v 29.68065 h 53.62305 v 24.536 z"
       id="text1-8"
       aria-label="AI-SCORE" />
    <path
       style="font-weight:800;font-size:407.672px;line-height:0.2;font-family:'Source Sans 3';-inkscape-font-specification:'Source Sans 3 Ultra-Bold';fill:#ffffff;fill-opacity:0.447059;stroke-width:19.2558;stroke-linecap:round;stroke-linejoin:round"
       d="M 1074.1124,783.64526 996.24703,518.25079 h 68.89657 l 28.537,119.85557 q 3.2614,14.26852 6.5228,28.53704 3.2614,13.86085 6.5227,27.7217 3.2614,13.86084 7.3381,28.12936 h 1.6307 q 3.6691,-14.26852 6.9304,-28.12936 3.2614,-13.86085 6.5228,-27.7217 3.2614,-14.26852 6.9304,-28.53704 l 30.5754,-119.85557 h 66.8582 l -81.1267,265.39447 z"
       id="text2-9"
       aria-label="V" />
    <path
       style="font-weight:bold;font-size:407.672px;line-height:0.2;font-family:'Source Sans 3';-inkscape-font-specification:'Source Sans 3 Bold';fill:#ffffff;fill-opacity:0.447059;stroke-width:19.2558;stroke-linecap:round;stroke-linejoin:round"
       d="M -460.76142,783.88843 V 518.08629 h 59.92779 v 102.32567 h 91.7262 V 518.08629 h 60.33545 v 265.80214 h -60.33545 V 673.00164 h -91.7262 v 110.88679 z"
       id="text2"
       aria-label="H" />
    <path
       inkscape:connector-curvature="0"
       id="path5544"
       style="font-style:normal;font-variant:normal;font-weight:800;font-stretch:normal;font-size:medium;line-height:90%;font-family:Raleway;-inkscape-font-specification:'Raleway Ultra-Bold';letter-spacing:0px;word-spacing:0px;fill:#ffffff;fill-opacity:0.446064;stroke:none;stroke-width:1px;stroke-linecap:butt;stroke-linejoin:miter;stroke-opacity:1"
       d="m 538.36777,715.71374 q 0,17.221 -7.11303,29.9495 -7.11303,12.7286 -19.46725,21.3391 -12.35413,8.2361 -28.8264,12.7285 -16.47227,4.1181 -34.81637,4.1181 H 318.61288 v -265.8022 h 147.87594 q 13.85167,0 25.08274,5.9899 11.23107,5.9899 19.09287,15.7235 7.8617,9.3593 11.97984,21.7134 4.49243,11.9798 4.49243,24.7084 0,19.0928 -9.73363,35.9395 -9.35924,16.8466 -28.45211,25.4571 22.83653,6.7386 35.93952,23.9596 13.47729,17.221 13.47729,44.1756 z m -62.51971,-12.3541 q 0,-12.3543 -7.11303,-20.9647 -7.11302,-8.6106 -17.96971,-8.6106 h -70.75579 v 58.0273 h 68.13519 q 11.97984,0 19.84154,-7.8617 7.8618,-7.8618 7.8618,-20.5903 z m -95.83853,-132.9013 v 55.0323 h 60.27339 q 10.10801,0 17.96981,-6.7386 7.8617,-6.7386 7.8617,-20.9646 0,-13.103 -7.11302,-20.216 -6.73865,-7.1131 -16.47227,-7.1131 z" />
    <path
       style="font-weight:bold;font-size:535.836px;line-height:0.2;font-family:'Source Sans 3';-inkscape-font-specification:'Source Sans 3 Bold';fill:#f9f9f9;stroke-width:25.3095;stroke-linecap:round;stroke-linejoin:round"
       d="M -129.34289,824.47632 -20.032349,475.11125 H 74.274787 L 184.12117,824.47632 H 100.53075 L 54.984691,647.65044 Q 47.482987,621.39447 40.517119,591.92349 33.551251,562.45252 26.585383,535.12488 h -2.143344 q -5.894196,27.32764 -12.860064,56.79861 -6.9658676,29.47098 -14.4675716,55.72695 L -48.967492,824.47632 Z m 71.802022,-83.05458 V 679.8006 H 110.71164 v 61.62114 z"
       id="text2-1"
       aria-label="A" />
  </g>
</svg>
